<svg width="36" height="36" viewBox="0 0 36 36" fill="none" xmlns="http://www.w3.org/2000/svg">
<path fill-rule="evenodd" clip-rule="evenodd" d="M19.7343 5.01479C21.0117 3.23587 22.6578 1.96021 24.566 1.00784C28.0924 -0.753608 32.9679 -0.426828 34.5161 3.7636C35.7516 7.10301 34.7503 11.3895 31.4738 13.1562C30.815 13.511 30.1614 13.8744 29.3698 14.3096C29.957 14.6101 30.3851 14.8216 30.8045 15.0452C33.4484 16.4589 34.9041 19.1378 34.4655 21.78C34.0006 24.5812 31.8268 26.6676 28.8788 27.2233C27.563 27.4715 26.2978 27.3125 25.0344 26.9787C24.6534 26.8791 24.2812 26.748 23.8129 26.603C23.8129 27.2146 23.7937 27.7354 23.8164 28.2544C23.9439 31.0818 22.3153 35.1464 19.1209 35.5815C18.1843 35.709 17.0345 35.4242 16.1957 35.0048C13.1062 33.4636 11.855 30.7742 11.5876 27.4925C11.5649 27.2251 11.5806 26.956 11.5806 26.6869C11.5806 26.4195 11.5806 26.1521 11.5806 25.6279C11.0145 25.9739 10.5776 26.2308 10.1512 26.5034C8.68507 27.4418 7.11235 28.0167 5.34566 27.9433C3.19103 27.8559 1.01543 26.5086 0.622251 24.3191C0.199364 21.9687 1.23212 19.4191 2.87649 17.7591C3.91274 16.7123 5.3911 15.6743 6.7751 15.1483C7.23119 14.9736 7.70124 14.8338 8.30936 14.6276C7.96336 14.3637 7.696 14.1663 7.43562 13.9601C4.62919 11.7408 2.97609 6.99465 5.6934 3.55389C6.62306 2.3761 7.82356 1.59498 9.28968 1.39227C12.1678 0.992103 14.9305 1.42722 17.4119 3.00868C18.2228 3.53117 18.8938 4.27911 19.7343 5.01479Z" fill="white"/>
<path fill-rule="evenodd" clip-rule="evenodd" d="M20.4143 10.9257L17.0998 8.02471C16.7751 7.74045 16.3995 7.38727 16.1252 7.1294C16.0151 7.02583 15.9213 6.93763 15.8537 6.87545C15.5345 6.58175 15.3648 6.44898 15.2518 6.37529C13.7051 5.39307 11.938 5.06252 9.84055 5.35416L9.83751 5.35458C9.56048 5.39288 9.23475 5.5234 8.83317 6.03216L8.83253 6.03298C8.34759 6.64702 8.18714 7.4069 8.39632 8.3404C8.62277 9.35099 9.24224 10.2892 9.91673 10.8225L9.91897 10.8243C10.059 10.9352 10.1821 11.0282 10.3551 11.1589C10.459 11.2374 10.5808 11.3294 10.735 11.447L16.7092 16.0031L9.59384 18.4158C9.25428 18.5309 9.0196 18.6071 8.83394 18.6674C8.58078 18.7495 8.41875 18.8021 8.20622 18.8836L8.19614 18.8874C7.44117 19.1744 6.43083 19.8543 5.71912 20.5732L5.71834 20.574C4.80423 21.4968 4.42228 22.7655 4.55381 23.5801C4.56954 23.5989 4.60169 23.6309 4.66195 23.6743C4.85419 23.8128 5.17095 23.9329 5.50773 23.9466L5.51169 23.9467C6.23896 23.977 7.00889 23.7654 7.99486 23.1344L7.99655 23.1333C8.32434 22.9237 8.68629 22.7048 9.04116 22.4901C9.19483 22.3972 9.34717 22.305 9.49483 22.2148L15.5806 18.4957V26.6869C15.5806 26.79 15.5791 26.8858 15.578 26.9553L15.5773 26.9942C15.5764 27.0497 15.5758 27.0857 15.5755 27.1229C15.5752 27.1526 15.5754 27.1712 15.5755 27.181C15.7697 29.5347 16.5225 30.6977 17.9813 31.4255L17.9845 31.4271C18.0943 31.482 18.2679 31.5465 18.4489 31.5847C18.5157 31.5989 18.5681 31.6061 18.6041 31.6095C18.6202 31.6014 18.6529 31.5826 18.7009 31.5437C18.8243 31.4436 19.0157 31.2364 19.2171 30.8735C19.6484 30.0968 19.8508 29.1083 19.8204 28.4346L19.8202 28.4293C19.7999 27.9647 19.8056 27.4145 19.81 26.9929C19.8115 26.8436 19.8129 26.7105 19.8129 26.603V21.1767L24.9963 22.782C25.2833 22.8709 25.4674 22.9307 25.6058 22.9756C25.7882 23.0348 25.8913 23.0683 26.0462 23.1088L26.056 23.1114C26.9921 23.3586 27.6153 23.3911 28.1376 23.2926C29.6049 23.016 30.3567 22.106 30.5194 21.1252C30.6352 20.4279 30.2897 19.3065 28.9197 18.5733C28.6781 18.4445 28.4539 18.3309 28.1554 18.1797C27.9833 18.0924 27.7864 17.9926 27.5471 17.8701L20.8371 14.4353L27.443 10.8042C27.6511 10.6898 27.8532 10.5784 28.0508 10.4695C28.5822 10.1766 29.0808 9.90174 29.5754 9.63543C30.6598 9.05069 31.4963 7.12903 30.7646 5.15151L30.764 5.1499C30.5277 4.5103 30.1506 4.21181 29.4686 4.07001C28.6281 3.89524 27.4417 4.04268 26.3535 4.58626L26.3523 4.58686C24.9161 5.30363 23.8161 6.18819 22.9834 7.34789L20.4143 10.9257ZM33.0445 16.8544C34.214 18.2592 34.7563 20.0277 34.4655 21.78C34.0006 24.5812 31.8268 26.6676 28.8788 27.2233C28.5183 27.2913 28.1617 27.3287 27.8078 27.3404C26.8699 27.3712 25.9517 27.221 25.0344 26.9787C24.7794 26.912 24.5284 26.8313 24.2499 26.7417C24.1122 26.6974 23.9678 26.651 23.8129 26.603C23.8129 26.8019 23.8109 26.9912 23.8089 27.174C23.8048 27.5532 23.801 27.9042 23.8164 28.2544C23.8507 29.0154 23.7578 29.8661 23.5414 30.7116C22.9537 33.007 21.4555 35.2635 19.1209 35.5815C18.1843 35.709 17.0345 35.4242 16.1957 35.0048C13.9499 33.8845 12.6755 32.1575 12.0442 30.0374C11.9535 29.7326 11.876 29.4197 11.8108 29.0993C11.8106 29.0979 11.8103 29.0965 11.81 29.0951C11.7053 28.5794 11.6326 28.0443 11.5876 27.4925C11.5715 27.3028 11.5747 27.1122 11.578 26.9214C11.5793 26.8433 11.5806 26.7651 11.5806 26.6869V25.6279C11.3931 25.7425 11.2198 25.8473 11.0564 25.9461C10.7263 26.1458 10.4364 26.3211 10.1512 26.5034C10.0531 26.5662 9.95444 26.6274 9.85531 26.6869C9.13086 27.1215 8.3795 27.4646 7.59099 27.6828C6.87566 27.8807 6.12977 27.9759 5.34566 27.9433C3.19103 27.8559 1.01543 26.5086 0.622251 24.3191C0.199364 21.9687 1.23212 19.4191 2.87649 17.7591C3.29149 17.3398 3.77742 16.922 4.29979 16.538C4.95142 16.0589 5.65978 15.6322 6.35796 15.3208C6.35877 15.3205 6.35958 15.3201 6.3604 15.3198C6.49921 15.2579 6.63762 15.2006 6.7751 15.1483C7.07153 15.0348 7.37387 14.936 7.71617 14.8241C7.90053 14.7638 8.09649 14.6998 8.30936 14.6276C8.19468 14.5402 8.08864 14.46 7.98864 14.3844C7.7869 14.2319 7.6097 14.0979 7.43562 13.9601C6.65127 13.3398 5.95701 12.5222 5.42306 11.5908C5.41174 11.5711 5.40048 11.5513 5.3893 11.5314C5.36838 11.4943 5.34773 11.457 5.32733 11.4195C4.03312 9.04108 3.78178 5.97446 5.6934 3.55389C6.62306 2.3761 7.82356 1.59498 9.28968 1.39227C11.8549 1.0356 14.3286 1.34251 16.5931 2.53325C16.8692 2.67845 17.1422 2.83679 17.4119 3.00868C17.9593 3.3614 18.4429 3.81685 18.958 4.30192C19.206 4.5354 19.4612 4.77574 19.7343 5.01479C20.1937 4.37505 20.7007 3.8004 21.2505 3.28246C22.2296 2.36017 23.3441 1.61772 24.566 1.00784C28.0924 -0.753608 32.9679 -0.426828 34.5161 3.7636C35.501 6.42564 35.0645 9.68954 33.1871 11.7991C32.8343 12.1955 32.4306 12.5511 31.976 12.8544C31.9744 12.8554 31.9729 12.8564 31.9713 12.8575C31.8117 12.9637 31.6459 13.0634 31.4738 13.1562C30.9971 13.4129 30.5232 13.6741 29.9978 13.9637C29.797 14.0744 29.5887 14.1893 29.3698 14.3096C29.5681 14.4111 29.7483 14.5024 29.9161 14.5875C30.2452 14.7543 30.5268 14.8971 30.8045 15.0452C31.6949 15.5214 32.4506 16.141 33.0445 16.8544ZM4.54079 23.5606C4.54137 23.5606 4.54433 23.5645 4.54794 23.5727C4.54202 23.5648 4.54022 23.5607 4.54079 23.5606Z" fill="#A82312"/>
</svg>
