<svg width="24" height="40" viewBox="0 0 24 40" fill="none" xmlns="http://www.w3.org/2000/svg">
<g clip-path="url(#clip0_985_667)">
<path d="M9.99713 1.99992H17.9971C23.1969 -0.800081 23.1639 23.1666 22.4974 35.4999C21.6974 38.6999 15.8306 39.4999 12.9971 39.4999C0.998047 39.4999 6.49771 1.99992 9.99713 1.99992Z" fill="#B41A18"/>
<path d="M23.6712 22.2583C23.6712 26.0249 23.678 29.7916 23.6657 33.5583C23.6688 34.3324 23.6245 35.1059 23.5333 35.8744C23.4878 36.3347 23.3429 36.779 23.1091 37.1759C22.4223 38.2335 21.3692 39.0859 20.1076 39.3536C19.0929 39.5885 18.0597 39.7305 17.02 39.7781C13.514 39.8693 10.006 39.8958 6.49854 39.9206C5.79005 39.9256 5.07989 39.8226 4.37171 39.7558C2.3972 39.5697 1.36651 38.2601 0.82164 36.5099C0.549814 35.6364 0.498686 34.688 0.385133 33.7688C-0.0116915 30.5576 0.074696 27.3314 0.114989 24.1068C0.148058 21.4497 0.17573 18.7927 0.198013 16.1356C0.219991 13.0913 0.196641 10.0462 0.25998 7.00292C0.282822 5.97338 0.416972 4.94952 0.660011 3.94976C1.10949 2.10247 2.37629 1.15191 4.19878 0.778883C8.43093 -0.0871636 12.6925 0.0291692 16.962 0.256612C18.473 0.337077 19.8271 0.885393 21.0867 1.71563C21.9772 2.29383 22.6325 3.179 22.9319 4.20852C23.1747 5.04864 23.3243 5.91374 23.3777 6.78762C23.5203 9.54307 23.6212 12.3007 23.6807 15.0605C23.7291 17.4587 23.6908 19.8589 23.6908 22.2583H23.6712ZM2.78456 31.6256C9.01133 31.0668 15.2645 30.8713 21.5133 31.0401C21.5314 30.7167 21.5565 30.4645 21.558 30.2121C21.5968 24.0986 21.4817 17.8301 21.514 11.7159C21.5166 11.4069 21.4963 11.0982 21.453 10.7924C21.2497 9.39097 21.2028 8.14369 20.9681 6.74773C20.8605 6.14222 20.7141 5.54447 20.5299 4.95827C20.4354 4.64993 20.2743 4.36697 20.0583 4.13C19.8423 3.89304 19.5769 3.70807 19.2814 3.58866C18.4266 3.18633 17.4989 2.9679 16.5569 2.947C15.5658 2.92855 14.5729 2.94061 13.5837 2.89379C10.5985 2.75239 7.64659 3.02214 4.70519 3.52726C3.76884 3.68804 3.25724 4.20385 3.05928 5.09703C2.97935 5.44872 2.92832 5.80652 2.90666 6.16678C2.87049 6.83608 2.85751 7.50714 2.85293 8.17752C2.81467 13.8519 2.77845 19.5268 2.74427 25.2018C2.73358 26.8525 2.71023 28.5032 2.70611 30.1539C2.70596 30.6101 2.75358 31.0663 2.78456 31.6256ZM21.4081 32.8211L2.87094 33.0431C2.99198 34.2214 2.93566 35.308 3.26487 36.3415C3.51777 37.1352 4.05959 37.6417 4.94253 37.6567C5.27265 37.6625 5.60232 37.6891 5.9323 37.6904C6.9993 37.6944 8.06615 37.6922 9.13315 37.6904C12.0037 37.6862 14.8746 37.7026 17.7445 37.6618C18.5041 37.6459 19.259 37.5366 19.9927 37.3363C20.6688 37.1552 21.3074 36.7217 21.3835 35.9612C21.483 34.9707 21.4081 33.9626 21.4081 32.8212V32.8211Z" fill="black"/>
<path d="M13.779 35.1055C13.7767 35.9325 13.0057 36.6516 12.1027 36.6689C11.9054 36.6742 11.7091 36.6389 11.5257 36.5649C11.3422 36.4911 11.1754 36.3804 11.0352 36.2393C10.8949 36.0982 10.7843 35.9299 10.7098 35.7443C10.6353 35.5587 10.5986 35.3596 10.6018 35.1592C10.6153 34.7299 10.7885 34.3217 11.0865 34.0169C11.3845 33.712 11.7852 33.5333 12.2078 33.5167C13.0001 33.5065 13.7808 34.2964 13.779 35.1055Z" fill="black"/>
</g>
<defs>
<clipPath id="clip0_985_667">
<rect width="23.8095" height="40" fill="white"/>
</clipPath>
</defs>
</svg>
