<svg width="41" height="40" viewBox="0 0 41 40" fill="none" xmlns="http://www.w3.org/2000/svg">
<path d="M7.26562 36.537C7.26562 36.537 12.2529 31.0246 12.3842 28.6622C25.7709 37.7182 22.7522 10.4189 22.2273 1.49414H25.7709L37.5831 7.0065L37.9769 12.1251L28.1334 10.5502C34.8274 49.9241 7.26562 36.537 7.26562 36.537Z" fill="#FFB051"/>
<path d="M31.2537 13.098C33.2623 13.7619 34.9294 14.0151 36.5034 13.8967C38.4836 13.747 39.5336 12.6052 39.54 10.5948C39.5429 9.68245 39.5 8.75665 39.4585 7.86143C39.4466 7.60892 39.4354 7.35648 39.4244 7.10407C39.4254 6.8172 39.3313 6.53815 39.1574 6.31114C38.9833 6.08411 38.7389 5.92206 38.4632 5.85061C38.0884 5.73725 37.7077 5.6453 37.3228 5.57527C33.2369 4.83115 30.0924 3.2406 27.7091 0.712526C27.3043 0.291405 26.7583 0.0373723 26.1775 0H26.1603C24.9313 0.0161941 23.6876 0.147806 22.4845 0.275253L21.8735 0.338906C21.1729 0.41097 20.7511 0.873326 20.7169 1.60692C20.7008 1.94489 20.6941 2.20356 20.6942 2.44534C20.695 4.14928 20.6973 5.85321 20.701 7.55716C20.7082 11.602 20.7158 15.7845 20.691 19.8971C20.6794 21.8281 20.5773 23.7748 20.3871 25.6829C20.345 26.1697 20.2056 26.6429 19.9776 27.0743C19.7497 27.5056 19.4374 27.886 19.0601 28.193C18.6493 28.5137 18.1787 28.7477 17.6763 28.8811C17.1738 29.0145 16.6497 29.0447 16.1355 28.9695C14.0716 28.7069 12.945 27.4719 12.5897 25.0829C12.3924 23.7573 12.654 22.561 13.3479 21.6229C14.03 20.6998 15.0673 20.1142 16.3472 19.9296C17.5404 19.7575 17.9047 19.2895 17.7906 18.0746C17.6932 17.0395 17.5372 15.9946 17.3864 14.9844C17.2882 14.3264 17.1865 13.6458 17.1023 12.9764C17.0167 12.2946 16.6059 11.8898 15.8813 11.7733C15.4306 11.7028 14.9723 11.6982 14.5203 11.7597C9.02658 12.5057 4.98622 15.3746 2.51154 20.2865C0.726915 23.8274 0.512608 27.892 1.92166 31.438C3.28971 34.8817 6.03191 37.4865 9.6428 38.7725C11.8625 39.5778 14.2032 39.993 16.5625 40C19.09 40 21.65 39.5151 24.2805 38.5456C27.3887 37.3995 29.2128 35.0597 29.7016 31.5909C30.3833 26.7538 30.4912 22.6878 30.0413 18.7951C29.8783 17.3846 29.8204 15.9639 29.759 14.4598C29.7339 13.839 29.7077 13.1995 29.6735 12.5449C29.8487 12.6068 30.01 12.6641 30.1609 12.7177C30.5811 12.8673 30.9127 12.9854 31.2537 13.098ZM26.9449 14.3797C26.9751 17.2113 27.0065 20.1395 26.9697 23.0177L26.9676 23.1809C26.9354 25.7837 26.9009 28.4746 26.4049 31.0892C25.951 33.483 24.7241 34.9897 22.6543 35.6953C18.2748 37.1879 14.2489 37.1979 10.3457 35.7254C4.90005 33.6707 3.25836 28.6126 4.04713 24.5111C5.0827 19.1275 8.09873 15.6984 13.0116 14.3187C13.5261 14.1744 14.137 14.0055 14.7581 13.8471C14.9066 13.8135 15.0569 13.7885 15.2083 13.772C15.2698 13.7637 15.3369 13.7547 15.4112 13.7443L15.6298 17.7258C15.5723 17.7549 15.5187 17.7836 15.4679 17.8106C15.3552 17.8791 15.234 17.9322 15.1075 17.9688C11.6133 18.7343 9.61209 22.0885 10.2409 26.1252C10.4188 27.2939 10.9035 28.3937 11.6449 29.3104C12.3864 30.2272 13.3575 30.9279 14.4579 31.3397C15.6084 31.7833 16.8545 31.9139 18.071 31.7183C19.2874 31.5227 20.4314 31.0077 21.3875 30.2254C22.7451 29.106 23.4064 27.7085 23.2999 26.184C23.1774 24.4254 23.2581 22.6425 23.3364 20.9181C23.386 19.8224 23.4374 18.6896 23.4363 17.5721C23.4337 14.6981 23.4225 11.7762 23.4115 8.95051C23.4062 7.61632 23.4014 6.28228 23.3969 4.9483C23.3953 4.46248 23.3958 3.97664 23.3969 3.47802V2.87461C24.0278 2.63445 24.6471 2.67605 25.2471 2.71686C25.4722 2.73209 25.7036 2.74763 25.9309 2.74763H25.9346L26.1151 2.92807C28.4971 5.30861 29.003 5.8137 36.6526 8.3531L36.543 10.5001C36.4948 10.5242 36.451 10.5487 36.4095 10.5717C36.3446 10.6135 36.2732 10.6443 36.1984 10.6627C33.9291 10.4917 31.3126 10.197 28.9795 8.85854C28.6493 8.68734 28.3009 8.55449 27.9411 8.46271C27.743 8.40327 27.538 8.34172 27.3141 8.26415C27.2909 8.25609 27.2663 8.2533 27.2419 8.256C27.2176 8.25871 27.1941 8.26684 27.1734 8.27981C27.1525 8.29276 27.1348 8.31025 27.1214 8.33097C27.1081 8.35168 27.0996 8.37516 27.0965 8.3996C27.0673 8.6221 27.0359 8.81676 27.0073 8.99344C26.9493 9.29245 26.9161 9.59571 26.9081 9.90024C26.9126 11.3935 26.9288 12.9116 26.9446 14.3797H26.9449Z" fill="black"/>
</svg>
