<svg width="41" height="40" viewBox="0 0 41 40" fill="none" xmlns="http://www.w3.org/2000/svg">
<g clip-path="url(#clip0_985_644)">
<rect x="7" y="2" width="31" height="36" rx="6" fill="#B41A18"/>
<path d="M39.4892 6.57009C38.9013 1.74199 34.8385 -0.196053 31.0742 0.0269217C28.8403 0.157996 26.6279 0.227782 23.9933 0.29241C21.6064 0.350922 19.1586 0.401174 16.9991 0.445471C13.9003 0.509273 10.696 0.575367 7.51421 0.663301C3.86131 0.764458 0.915866 3.11749 0.34942 6.38559C0.121982 7.69733 0.115361 9.02095 0.129411 10.4909C0.170568 14.7834 0.233378 19.1209 0.2947 23.3156L0.301317 23.7698C0.32556 25.4573 0.349343 27.1449 0.372704 28.8325C0.376671 29.1168 0.386588 29.4017 0.396836 29.6867L0.397682 29.7095C0.439244 30.4156 0.432238 31.1237 0.376699 31.8288C0.18017 33.712 0.900995 35.7197 2.30513 37.1994C3.86596 38.8442 6.07799 39.6804 8.53551 39.5551C11.2172 39.4163 13.9526 39.4427 16.5978 39.4682L16.7894 39.4702C19.9285 39.5001 23.1209 39.5799 26.2123 39.6576L27.771 39.6966C28.0335 39.7123 28.294 39.7516 28.5492 39.8146C28.6831 39.843 28.817 39.8711 28.9504 39.8941C28.9695 39.8974 28.989 39.8992 29.0084 39.8992H30.6998C30.7165 39.8991 30.733 39.8979 30.7494 39.8956C31.0874 39.846 31.427 39.8011 31.7656 39.7568L31.791 39.7535C32.55 39.6543 33.3348 39.5521 34.0998 39.386C37.3996 38.6692 40.1953 35.2467 40.2046 31.9126C40.2069 31.1272 40.2097 30.3414 40.2128 29.5556L40.2143 29.1611C40.2308 24.8543 40.249 20.4009 40.1565 16.0157C40.0889 12.8268 39.8644 9.6481 39.4892 6.57009ZM37.6545 31.6804C37.6646 34.2554 35.4184 36.6663 32.5409 37.169C30.3361 37.5541 28.0824 37.4232 25.9026 37.2971C25.0935 37.2502 24.2568 37.2016 23.4254 37.1796C22.4816 37.1548 21.5203 37.106 20.5854 37.0586L20.5028 37.0543C20.1004 37.034 19.6978 37.0136 19.2985 36.9954H19.2799C18.2628 36.9954 17.2456 36.9943 16.2282 36.9916C15.0476 36.9897 13.8481 36.9877 12.6436 36.9877C11.0593 36.9877 9.75685 36.991 8.54363 36.9983H8.49024C6.71073 36.9983 5.24282 36.4705 4.24513 35.4715C3.20778 34.4328 2.66645 32.8814 2.68017 30.9845C2.71224 26.5245 2.69288 22.0092 2.67404 17.6422C2.66346 15.1491 2.65257 12.5711 2.65125 10.0238C2.6264 8.55678 2.95821 7.10566 3.61816 5.79521C4.36659 4.35587 5.70348 3.59207 7.82513 3.39158C10.8023 3.11058 13.2046 2.95751 15.3853 2.91007C21.6808 2.77222 26.5257 2.72346 31.0942 2.75173C34.4266 2.77239 36.3512 4.33999 36.9785 7.54511C37.6727 11.0972 37.6628 14.7481 37.6523 18.2807L37.6513 18.5802C37.6373 23.5902 37.6381 27.7525 37.6542 31.6804H37.6545Z" fill="black"/>
<path d="M21.0194 10.5454C18.9308 10.5064 17.0722 10.9309 15.4925 11.8016C13.59 12.8496 11.5636 14.2645 10.9571 16.8087C10.1773 20.0796 10.532 23.2267 12.0113 26.1626C13.0705 28.2651 14.7308 29.5588 16.8128 29.9036C18.0586 30.1211 19.3201 30.2353 20.5847 30.2453C20.9814 30.2453 21.375 30.2314 21.7528 30.2041C24.556 30.0019 26.7826 28.8781 28.3708 26.8636C30.8302 23.7441 31.2578 20.1725 29.6422 16.2481C28.0801 12.4529 25.0918 10.4801 21.0194 10.5454ZM27.8558 20.5738C27.8679 24.8383 25.0085 27.6862 20.5708 27.8277C19.4419 27.8469 18.3141 27.7484 17.2056 27.534C15.7867 27.2793 14.7097 26.4254 14.0037 24.9962C12.8263 22.6112 12.5407 20.1461 13.1545 17.6692C13.6274 15.7608 15.0209 14.3611 17.4145 13.39C18.3039 13.0324 19.2545 12.8508 20.2132 12.8552C21.0436 12.8591 21.8694 12.9807 22.6657 13.2164C25.8084 14.1309 27.8456 17.0188 27.8558 20.5738Z" fill="black"/>
<path d="M31.7792 6.39258H31.7317C31.2671 6.40421 30.8246 6.59365 30.4955 6.92185C30.1666 7.25005 29.9758 7.69203 29.9631 8.15659C29.9515 8.38302 29.9861 8.6094 30.0646 8.82211C30.1431 9.03484 30.2638 9.22945 30.4195 9.39425C30.582 9.55968 30.7765 9.69043 30.9911 9.77849C31.2058 9.86658 31.4358 9.91016 31.6679 9.90666C32.1254 9.89188 32.5598 9.70175 32.881 9.3756C33.2023 9.04947 33.3858 8.6123 33.3937 8.15458C33.4086 7.24119 32.654 6.41803 31.7792 6.39258Z" fill="black"/>
</g>
<defs>
<clipPath id="clip0_985_644">
<rect width="40.3306" height="40" fill="white"/>
</clipPath>
</defs>
</svg>
