<svg width="28" height="40" viewBox="0 0 28 40" fill="none" xmlns="http://www.w3.org/2000/svg">
<g clip-path="url(#clip0_985_657)">
<path d="M1.75 20.75C1.88477 21.2891 7.09873 20.75 7.875 20.75C8.95833 20.75 10.0417 20.75 11.125 20.75" stroke="#005A00" stroke-width="3" stroke-linecap="round"/>
<path d="M11.1242 21.3746C11.1242 23.776 11.1268 26.1631 11.3465 28.5552C11.3567 28.6662 11.3742 29 11.3742 28.8885C11.3742 28.1604 11.3783 27.4345 11.3187 26.7079C11.2032 25.3013 10.9287 21.0761 10.9992 22.4857C11.0935 24.3709 11.1242 26.2426 11.1242 28.1316C11.1242 28.6835 11.1242 29.1441 11.1242 28.2774C11.1242 27.2445 11.1405 26.219 10.9923 25.1941C10.8699 24.3477 10.7206 23.505 10.5548 22.6663C10.4189 21.9791 10.5052 22.9923 10.5131 23.1177C10.5656 23.9437 10.7495 24.749 10.8465 25.5691C10.8479 25.5815 10.9331 26.4269 11.0548 26.2704C11.5296 25.6599 10.9108 23.9579 10.6798 23.3329C10.6104 23.1451 10.5446 22.8302 10.7492 22.7218C11.444 22.354 11.2483 24.3244 11.2492 24.5552C11.2613 27.3877 10.9992 30.1977 10.9992 33.0274C10.9992 33.2495 10.9921 34.3216 11.0617 33.3746C11.1644 31.9781 11.1909 30.5306 11.1173 29.1316C11.0337 27.5434 10.7492 32.2981 10.7492 33.8885C10.7492 35.7467 11.1008 33.5401 11.1173 32.9371C11.1302 32.4667 11.1242 29.7805 11.1242 31.6524C11.1242 31.9797 11.2239 35.3444 11.7492 34.8191C11.9491 34.6192 12.0649 33.6519 11.8742 34.1524C11.7638 34.4423 11.8757 35.585 11.4992 35.6246C10.9565 35.6817 10.436 35.3433 9.94368 35.6246C9.12446 36.0927 10.7809 36.7496 11.1242 36.7496C11.973 36.7496 12.789 36.6246 13.6242 36.6246C14.7885 36.6246 14.6193 34.9007 14.6242 34.1246C14.6381 31.9267 14.4467 29.7701 14.277 27.5829C14.2668 27.4508 14.2492 26.6847 14.2492 26.7774C14.2492 28.0821 14.2758 29.3899 14.2353 30.6941C14.1809 32.4505 13.5621 37.6906 13.7562 35.9441C14.0101 33.659 14.2005 31.3182 14.2423 29.0204C14.245 28.8732 14.3664 26.669 14.1937 26.6385C13.9844 26.6016 13.7659 29.574 13.7492 29.7427C13.6079 31.1767 13.5418 32.6031 13.4715 34.0413C13.4624 34.2259 13.2723 35.9489 13.4298 34.8746C13.8632 31.9173 13.6628 28.9455 13.8742 25.9718C13.9163 25.3798 13.9178 23.6251 14.0617 24.201C14.2767 25.0607 14.1282 26.1294 14.0965 26.9996C14.0506 28.2578 13.8881 29.5183 13.8881 30.7774C13.8881 31.6394 14.1984 30.4035 14.2215 30.2635C14.4712 28.7461 14.4747 27.1782 14.4923 25.6454C14.5033 24.6849 14.4992 23.7241 14.4992 22.7635C14.4992 22.6689 14.5815 21.9045 14.4853 21.7843C14.4058 21.6849 14.3918 22.022 14.3603 22.1454C14.2131 22.724 14.1065 23.3108 14.027 23.9024C13.8866 24.9474 13.7902 26.0081 13.7562 27.0621C13.7549 27.1027 13.6995 28.0456 13.777 27.4857C13.9082 26.5385 13.9853 25.5962 13.9853 24.6385C13.9853 23.9031 14.0402 22.974 13.777 22.2635C13.648 21.9151 13.6498 22.997 13.6242 23.3677C13.5944 23.8009 13.4992 24.2463 13.4992 24.6802C13.4992 25.3297 13.6195 23.3852 13.6242 22.7357C13.6273 22.3142 13.7992 21.0017 13.527 21.9996C13.3479 22.6565 13.4965 21.1597 13.4992 20.9996C13.5202 19.7822 13.409 18.5333 13.5062 17.3191C13.5658 16.5737 13.488 15.5901 13.6867 14.8746C13.8915 14.1376 13.9992 13.112 13.9992 12.3468C13.9992 11.7583 14.1242 11.2169 14.1242 10.6246C14.1242 9.89218 14.3792 9.49276 14.6242 8.81906C15.0567 7.62969 16.5265 6.45124 17.6242 5.90239C18.2223 5.60337 19.0102 5.71078 19.652 5.52739C20.2844 5.34672 20.9694 5.37462 21.6242 5.37462C22.2763 5.37462 23.6648 4.68554 24.1242 5.37462" stroke="#005A00" stroke-width="3" stroke-linecap="round"/>
<path d="M24.1284 5.875C22.5689 6.02454 21.0093 6.49031 19.5312 7C19.4487 7.02843 18.4682 7.44148 18.5867 7.47222C19.1181 7.60998 20.0061 7.14602 20.5034 7C21.321 6.75992 22.1037 6.35657 22.9201 6.13889C24.1251 5.81754 20.689 7.26726 19.5173 7.69444C17.9482 8.26652 21.1017 6.7172 20.8923 6.65278C20.3967 6.5003 19.4894 7.4268 19.1284 7.6875C18.6821 8.00985 18.3795 8.47798 18.0034 8.875C17.4853 9.42193 17.0485 10.4126 16.8506 11.125C16.4869 12.4343 15.7862 13.7538 15.6353 15.1111C15.4734 16.569 15.5034 18.0875 15.5034 19.5556C15.5034 19.7043 15.3701 21.1111 15.6978 21.1111C15.991 21.1111 16.0384 20.2108 16.059 20.0556C16.0684 19.9841 16.1492 18.5448 16.1006 18.5556C15.6168 18.6631 15.6284 21.33 15.6284 21.7847C15.6284 21.9701 15.7958 21.4539 15.8853 21.2917C16.1527 20.8071 16.3599 20.2889 16.6284 19.8056C17.0985 18.9594 18.8416 20.2424 17.1978 19.6944C16.355 19.4135 18.4417 19.5545 18.6978 19.5972C18.9293 19.6358 19.1862 19.75 19.4201 19.75C19.8901 19.75 18.5173 19.4857 18.059 19.3819C17.5687 19.2709 17.0928 19.25 16.5937 19.25C16.3089 19.25 17.1634 19.2437 17.4478 19.2569C18.0463 19.2848 18.6479 19.4 19.2256 19.5556C19.86 19.7264 18.7046 19.4236 18.559 19.4028C18.3243 19.3693 17.6275 19.25 17.8645 19.25C18.5911 19.25 19.3191 19.375 20.052 19.375C20.7983 19.375 21.6798 19.4632 22.3784 19.1528C23.2579 18.7619 23.6889 19.14 22.927 19.9583C22.7423 20.1567 21.604 21.8801 21.6284 21C21.6365 20.7087 22.1347 20.005 21.8923 20.1667C21.4292 20.4754 21.1954 21.2542 20.8159 21.6667C20.345 22.1785 19.5939 22.0018 19.5103 21.25C19.4879 21.0476 19.4798 20.8112 19.5728 20.625C19.6019 20.5668 19.8896 20.3124 19.8506 20.2778C19.4225 19.8972 17.719 21.0797 17.3923 21.2431C17.0649 21.4068 16.486 21.5452 16.2256 21.8056C16.201 21.8302 16.4234 21.91 16.5034 21.75" stroke="#005A00" stroke-width="3" stroke-linecap="round"/>
<path d="M14.5037 22.875C14.0613 23.1405 15.5328 23.0725 16.0454 23.0139C17.4261 22.8561 18.8943 22.5 20.2884 22.5C21.4733 22.5 17.9386 22.875 16.7537 22.875" stroke="#005A00" stroke-width="3" stroke-linecap="round"/>
<path d="M2.74884 19.625C0.805627 19.8679 6.6655 19.625 8.62384 19.625C9.55699 19.625 11.0596 19.9393 11.7488 19.25C12.3613 18.6375 13.1151 17.6157 13.5266 16.875C14.0804 15.8782 14.8708 15.1341 15.2488 14" stroke="#005A00" stroke-width="3" stroke-linecap="round"/>
<path d="M22.8535 9.81798C23.4671 9.74362 24.1 9.71399 24.712 9.68508C24.9568 9.67362 25.2015 9.66213 25.4462 9.64868C26.4988 9.58722 27.1957 9.01815 27.3578 8.0876C27.8028 5.53669 27.8153 3.45435 27.398 1.53398C27.1895 0.574891 26.5582 0.0734206 25.6288 0.117966C24.7075 0.163239 23.7662 0.190679 22.8558 0.217042C20.514 0.285042 18.0921 0.355217 15.7554 0.736308C11.5848 1.41631 8.97357 4.04962 8.40121 8.15144C8.25859 9.34149 8.18348 10.5387 8.1763 11.7373C8.16448 12.2136 8.1523 12.7064 8.13139 13.1885C8.11575 13.5498 8.11957 13.9171 8.12357 14.3056C8.12503 14.4418 8.12648 14.5819 8.12702 14.7283C7.74193 14.7414 7.37175 14.7536 7.0123 14.7647C6.09939 14.7942 5.23721 14.822 4.38466 14.8629L4.01012 14.8799C3.25843 14.9 2.50837 14.9614 1.76338 15.0636C0.699929 15.2296 0.305396 15.6649 0.254305 16.7267C0.173942 18.4176 0.0921088 20.3829 0.138472 22.3291C0.177927 23.9836 0.91576 24.6745 2.68521 24.7135C3.41248 24.7291 4.15012 24.7078 4.86339 24.6867C5.31284 24.6735 5.77757 24.6596 6.23357 24.6556C6.50601 24.656 6.77821 24.6711 7.04903 24.7007C7.12175 24.7071 7.19448 24.7135 7.26375 24.7189C7.28193 24.7653 7.29737 24.8064 7.31192 24.8436C7.33993 24.9016 7.35955 24.9633 7.37012 25.0269C7.38612 28.8931 7.40193 33.014 7.40521 37.1525C7.40684 39.1367 7.88612 39.6482 9.84775 39.7578C11.4512 39.8475 13.0841 39.8602 14.6621 39.8724L15.2659 39.8771C15.3205 39.8771 15.3721 39.8771 15.4238 39.8771C17.7263 39.8771 18.1913 39.4075 18.4733 36.9689C18.5278 36.53 18.5589 36.0885 18.5664 35.6464C18.5888 33.1736 18.6029 30.6607 18.6171 28.23L18.6215 27.4355C18.6242 26.9436 18.6238 26.452 18.6229 25.9147V25.2705C19.0493 25.2705 19.4555 25.2715 19.8475 25.272C20.8111 25.2738 21.7191 25.2751 22.6111 25.2682C23.9088 25.2582 24.8475 24.6273 25.2557 23.4918C25.8669 21.7895 26.4529 19.9238 27.0473 17.7889C27.2008 17.2374 27.1406 16.7586 26.8731 16.4035C26.5977 16.0377 26.1324 15.8414 25.5277 15.8365C24.4575 15.8278 23.3682 15.8679 22.3162 15.9067C21.7678 15.9269 21.2193 15.9469 20.6713 15.9613C20.2638 15.9715 19.8488 15.9689 19.4466 15.966C19.3088 15.965 19.1709 15.9642 19.0335 15.9637C19.0089 15.8696 18.9862 15.7854 18.9651 15.7092C18.9157 15.5457 18.8777 15.3791 18.8513 15.2104C18.8058 14.9166 18.7926 14.6188 18.8118 14.3221C19.0762 11.7243 19.3944 10.2349 22.8535 9.81798ZM23.6418 18.8687L22.6742 22.2958L21.6497 22.3127C20.8382 22.3258 20.0444 22.3387 19.2498 22.3544C16.0381 22.4184 15.6147 22.8196 15.4725 25.9342C15.3759 28.0456 15.3645 30.1945 15.3532 32.2725C15.3487 33.148 15.3439 34.0236 15.3332 34.8985C15.3272 35.3953 15.3287 35.892 15.3303 36.4115C15.3303 36.6084 15.3316 36.8084 15.3319 37.0129C13.8421 37.2758 12.4978 37.1847 11.0774 37.0884C10.9191 37.0778 10.7599 37.0673 10.5999 37.0567C10.5872 36.9773 10.5738 36.9 10.5608 36.824C10.5159 36.5964 10.4869 36.366 10.4739 36.1344C10.4319 34.676 10.3928 33.2175 10.3567 31.7589C10.2945 29.3407 10.2303 26.8407 10.1452 24.382C10.0739 22.3109 9.58884 21.88 7.40903 21.9398C6.38921 21.9691 5.37993 22.0258 4.31157 22.0853C3.8943 22.1089 3.47066 22.1327 3.03775 22.1555V17.8393C3.13739 17.8258 3.23648 17.8115 3.33484 17.7973C3.65017 17.7457 3.96801 17.7108 4.28703 17.6931C4.84284 17.6723 5.40957 17.6631 5.95757 17.6544C6.75757 17.6413 7.58319 17.6278 8.3961 17.5785C10.4436 17.4545 10.8325 17.0498 10.8419 15.0316C10.845 14.441 10.841 13.8498 10.8372 13.2597C10.8312 12.3111 10.825 11.3303 10.8479 10.3678C10.8761 9.7516 10.9424 9.13778 11.0465 8.5298L11.0988 8.1762C11.4843 5.52966 13.1336 3.89911 16.1414 3.19129L16.3423 3.14291C16.6822 3.04608 17.0319 2.98764 17.3848 2.96873C19.1375 2.95237 20.8655 2.95475 22.6953 2.95657C23.2713 2.95729 23.8533 2.95775 24.4409 2.95799C24.7733 4.27562 24.5942 5.63746 24.3578 6.81728C24.1171 6.86018 23.8762 6.90255 23.6348 6.94449C23.0247 7.05068 22.3938 7.16055 21.7748 7.28673C18.3775 7.97764 16.8323 9.67198 16.441 13.1322C16.4199 13.3209 16.3976 13.5098 16.3756 13.6989C16.2685 14.6129 16.1574 15.5582 16.1392 16.4942C16.1076 18.1209 16.6707 18.7211 18.2906 18.788C19.2093 18.826 20.1424 18.8087 21.0446 18.7922C21.5435 18.7829 22.0593 18.774 22.566 18.774C22.824 18.7791 23.0817 18.7993 23.3373 18.8344C23.4331 18.8449 23.5337 18.8565 23.642 18.8682L23.6418 18.8687Z" fill="black"/>
</g>
<defs>
<clipPath id="clip0_985_657">
<rect width="27.8182" height="40" fill="white"/>
</clipPath>
</defs>
</svg>
